<svg xmlns="http://www.w3.org/2000/svg" version="1.1" xmlns:xlink="http://www.w3.org/1999/xlink" xmlns:svgjs="http://svgjs.dev/svgjs" width="1000" height="1000" viewBox="0 0 1000 1000"><rect width="1000" height="1000" fill="#000000"></rect><g transform="matrix(0.7,0,0,0.7,150.00077059784894,106.25)"><svg viewBox="0 0 320 360" data-background-color="#051726" preserveAspectRatio="xMidYMid meet" height="1125" width="1000" xmlns="http://www.w3.org/2000/svg" xmlns:xlink="http://www.w3.org/1999/xlink"><defs></defs><g id="tight-bounds" transform="matrix(1,0,0,1,0.00010353528136874957,0)"><svg viewBox="0 0 320 360" height="360" width="320"><g><svg></svg></g><g><svg viewBox="0 0 320 360" height="360" width="320"><g><path d="M307.925 179.999l6.575-11.387c11.322-19.607 4.604-44.679-15.003-56.001l-11.387-6.575v-13.151c0-22.639-18.354-40.994-40.994-40.994h-13.151l-6.575-11.387c-11.322-19.607-36.393-26.325-56.001-15.003l-11.39 6.572-11.387-6.576c-19.607-11.318-44.679-4.6-56.001 15.007l-6.575 11.387h-13.151c-22.639 0-40.994 18.354-40.994 40.994v13.151l-11.387 6.575c-19.607 11.322-26.325 36.393-15.003 56.001l6.572 11.387-6.576 11.387c-11.318 19.607-4.6 44.679 15.007 56l11.387 6.576v13.15c0 22.639 18.354 40.994 40.994 40.994h13.151l6.575 11.387c11.322 19.607 36.393 26.325 56.001 15.003l11.387-6.571 11.387 6.575c19.607 11.322 44.679 4.604 56-15.003l6.576-11.387h13.15c22.639 0 40.994-18.354 40.994-40.994v-13.151l11.387-6.575c19.607-11.322 26.325-36.393 15.003-56.001zM297.702 115.716c8.655 4.996 14.842 13.062 17.428 22.713 2.586 9.65 1.261 19.734-3.735 28.384l-5.538 9.596-17.747-30.74v-35.494zM251.155 271.155l-57.791 33.365h-66.731l-57.791-33.365-33.365-57.791v-66.731l33.365-57.791 57.791-33.365h66.731l57.791 33.365 33.365 57.791v66.731zM284.517 220.539v31.351l-27.151 15.676zM247.566 277.366l-15.676 27.151h-31.351zM187.15 308.106l-27.151 15.676-27.151-15.676zM119.459 304.517h-31.352l-15.676-27.151zM62.632 267.566l-27.151-15.676v-31.351zM31.891 207.15l-15.675-27.151 15.675-27.151zM35.481 139.459v-31.352l27.151-15.676zM72.431 82.632l15.676-27.151h31.352zM132.848 51.891l27.151-15.675 27.151 15.675zM200.539 55.481h31.351l15.676 27.151zM257.366 92.431l27.151 15.676v31.352zM288.106 152.848l15.676 27.151-15.676 27.151zM247.112 55.481c9.992 0 19.384 3.889 26.452 10.956 7.063 7.063 10.956 16.46 10.957 26.452v11.079l-30.741-17.747-17.747-30.74zM173.18 28.606c8.655-4.996 18.735-6.322 28.385-3.735 9.65 2.586 17.716 8.777 22.712 17.428l5.538 9.596h-35.494l-30.741-17.747zM95.716 42.295c4.996-8.655 13.062-14.842 22.713-17.428 9.65-2.586 19.734-1.261 28.384 3.736l9.596 5.537-30.74 17.747h-35.494zM35.481 92.885c0-9.992 3.889-19.384 10.956-26.452 7.063-7.063 16.46-10.956 26.452-10.956h11.079l-17.747 30.74-30.74 17.747zM8.606 166.817c-4.996-8.655-6.322-18.735-3.735-28.385 2.586-9.65 8.777-17.716 17.428-22.712l9.596-5.538v35.495l-17.747 30.74zM22.295 244.281c-8.655-4.996-14.842-13.062-17.428-22.712-2.586-9.65-1.261-19.734 3.736-28.385l5.537-9.596 17.747 30.74v35.495zM72.885 304.517c-9.992 0-19.384-3.889-26.452-10.957-7.063-7.063-10.956-16.46-10.956-26.451v-11.08l30.74 17.747 17.747 30.741zM146.817 331.391c-8.655 4.996-18.735 6.322-28.385 3.735-9.65-2.586-17.716-8.777-22.712-17.428l-5.538-9.596h35.495l30.74 17.747zM224.281 317.702c-4.996 8.655-13.062 14.842-22.712 17.428-9.65 2.586-19.734 1.261-28.385-3.735l-9.596-5.538 30.74-17.747h35.495zM284.517 267.112c0 9.992-3.889 19.384-10.957 26.452-7.063 7.063-16.46 10.956-26.451 10.957h-11.08l17.747-30.741 30.741-17.747zM315.13 221.565c-2.586 9.65-8.777 17.716-17.428 22.712l-9.596 5.538v-35.494l17.747-30.741 5.538 9.596c4.996 8.658 6.326 18.739 3.739 28.389z" fill="#c6a0a0" data-fill-palette-color="tertiary"></path></g><g transform="matrix(1,0,0,1,64.00000000000001,101.8023129268282)"><svg viewBox="0 0 191.99999999999997 156.3953741463436" height="156.3953741463436" width="191.99999999999997"><g><svg viewBox="0 0 191.99999999999997 156.3953741463436" height="156.3953741463436" width="191.99999999999997"><g transform="matrix(1,0,0,1,0,94.60611034285225)"><svg viewBox="0 0 191.99999999999997 61.78926380349136" height="61.78926380349136" width="191.99999999999997"><g><svg viewBox="0 0 191.99999999999997 61.78926380349136" height="61.78926380349136" width="191.99999999999997"><g><svg viewBox="0 0 191.99999999999997 39.02704114957544" height="39.02704114957544" width="191.99999999999997"><g transform="matrix(1,0,0,1,0,0)"><svg width="191.99999999999997" viewBox="3.8299999237060547 -37.5 186.8699951171875 37.9900016784668" height="39.02704114957544" data-palette-color="#ffffff"><path d="M15.48-13.92L8.3-13.92 8.3 0 3.83 0 3.83-35.55 15.16-35.55Q20.12-35.55 22.95-32.58 25.78-29.61 25.78-24.68L25.78-24.68Q25.78-19.56 23.08-16.78 20.39-14.01 15.48-13.92L15.48-13.92ZM8.3-31.69L8.3-17.75 15.16-17.75Q18.14-17.75 19.73-19.53 21.31-21.31 21.31-24.63L21.31-24.63Q21.31-27.83 19.68-29.76 18.04-31.69 15.19-31.69L15.19-31.69 8.3-31.69ZM53.78-17.7L53.78-4.42 53-3.44Q49.63 0.49 43.14 0.49L43.14 0.49Q37.38 0.49 34.09-3.33 30.81-7.15 30.73-14.14L30.73-14.14 30.73-21.12Q30.73-28.59 33.73-32.31 36.72-36.04 42.67-36.04L42.67-36.04Q47.75-36.04 50.62-33.2 53.49-30.37 53.78-25.12L53.78-25.12 49.31-25.12Q49.05-28.44 47.47-30.31 45.9-32.18 42.7-32.18L42.7-32.18Q38.86-32.18 37.08-29.68 35.3-27.17 35.23-21.68L35.23-21.68 35.23-14.43Q35.23-9.06 37.28-6.19 39.33-3.32 43.16-3.32L43.16-3.32Q46.77-3.32 48.65-5.08L48.65-5.08 49.31-5.69 49.31-13.89 42.82-13.89 42.82-17.7 53.78-17.7ZM89.01-19.53L89.01-15.7 76.99-15.7 76.99 0 72.53 0 72.53-35.55 91.03-35.55 91.03-31.69 76.99-31.69 76.99-19.53 89.01-19.53ZM100.6-26.42L100.6 0 96.28 0 96.28-26.42 100.6-26.42ZM100.94-33.42L100.94-33.42Q100.94-32.32 100.33-31.59 99.72-30.86 98.48-30.86L98.48-30.86Q97.26-30.86 96.65-31.59 96.03-32.32 96.03-33.42 96.03-34.52 96.65-35.28 97.26-36.04 98.48-36.04 99.7-36.04 100.32-35.27 100.94-34.5 100.94-33.42ZM107.38-26.42L111.46-26.42 111.58-23.56Q114.1-26.9 118.01-26.9L118.01-26.9Q125.01-26.9 125.11-17.55L125.11-17.55 125.11 0 120.81 0 120.81-17.36Q120.81-20.46 119.78-21.77 118.74-23.07 116.66-23.07L116.66-23.07Q115.05-23.07 113.77-22 112.49-20.92 111.71-19.19L111.71-19.19 111.71 0 107.38 0 107.38-26.42ZM130.67-11.69L130.67-14.4Q130.67-20.51 132.96-23.71 135.24-26.9 139.51-26.9L139.51-26.9Q143.3-26.9 145.42-23.83L145.42-23.83 145.42-37.5 149.74-37.5 149.74 0 145.79 0 145.57-2.83Q143.44 0.49 139.49 0.49L139.49 0.49Q135.39 0.49 133.05-2.7 130.72-5.88 130.67-11.69L130.67-11.69ZM134.99-14.58L134.99-11.94Q134.99-7.5 136.31-5.41 137.63-3.32 140.61-3.32L140.61-3.32Q143.83-3.32 145.42-6.57L145.42-6.57 145.42-19.9Q143.76-23.07 140.63-23.07L140.63-23.07Q137.66-23.07 136.34-20.98 135.02-18.9 134.99-14.58L134.99-14.58ZM165.83 0.49L165.83 0.49Q160.9 0.49 158.26-2.45 155.62-5.4 155.57-11.08L155.57-11.08 155.57-14.28Q155.57-20.19 158.15-23.55 160.72-26.9 165.34-26.9L165.34-26.9Q169.98-26.9 172.27-23.95 174.57-21 174.62-14.75L174.62-14.75 174.62-11.91 159.87-11.91 159.87-11.3Q159.87-7.06 161.47-5.13 163.07-3.2 166.07-3.2L166.07-3.2Q167.98-3.2 169.43-3.92 170.88-4.64 172.15-6.2L172.15-6.2 174.4-3.47Q171.59 0.49 165.83 0.49ZM165.34-23.19L165.34-23.19Q162.65-23.19 161.36-21.35 160.07-19.51 159.89-15.63L159.89-15.63 170.3-15.63 170.3-16.21Q170.12-19.97 168.94-21.58 167.76-23.19 165.34-23.19ZM190.68-26.56L190.7-22.36Q189.8-22.53 188.75-22.53L188.75-22.53Q185.43-22.53 184.11-18.9L184.11-18.9 184.11 0 179.79 0 179.79-26.42 183.99-26.42 184.06-23.73Q185.8-26.9 188.97-26.9L188.97-26.9Q189.99-26.9 190.68-26.56L190.68-26.56Z" opacity="1" transform="matrix(1,0,0,1,0,0)" fill="#ffffff" class="undefined-text-0" data-fill-palette-color="primary" id="text-0"></path></svg></g></svg></g><g transform="matrix(1,0,0,1,19.19999999999999,48.24038891600261)"><svg viewBox="0 0 153.6 13.548874887488749" height="13.548874887488749" width="153.6"><g transform="matrix(1,0,0,1,0,0)"><svg width="153.6" viewBox="1.75 -32.70000076293945 499.8900146484375 44.099998474121094" height="13.548874887488749" data-palette-color="#6960eb"><path d="M4.1-30.6L1.75-30.6 1.75-31.5 17.3-31.5Q21.25-31.5 22.85-31.95L22.85-31.95Q22.4-29.9 22.4-26.25L22.4-26.25 22.4-23.9 21.25-23.9 20.5-29Q20.4-30.1 19.1-30.1L19.1-30.1 8.9-30.1 8.9-16.45 18.75-16.45Q19.25-16.45 19.35-17.15L19.35-17.15 19.6-20.25 20.5-20.25 20.5-11.25 19.6-11.25 19.35-14.35Q19.25-15.05 18.75-15.05L18.75-15.05 8.9-15.05 8.9-1.6Q8.9-0.9 9.6-0.9L9.6-0.9 13.95-0.9 13.95 0 1.75 0 1.75-0.9 4.1-0.9Q4.8-0.9 4.8-1.6L4.8-1.6 4.8-30Q4.8-30.6 4.1-30.6L4.1-30.6ZM28.65-1.6L28.65-1.6 28.65-20Q28.65-20.7 27.95-20.7L27.95-20.7 25.6-20.7 25.6-21.6 28.05-21.6Q31.05-21.6 32.25-21.9L32.25-21.9 32.25-1.5Q32.25-0.9 32.95-0.9L32.95-0.9 35.3-0.9 35.3 0 25.6 0 25.6-0.9 27.95-0.9Q28.65-0.9 28.65-1.6ZM28.77-27.13Q28.1-27.8 28.1-28.8 28.1-29.8 28.77-30.48 29.45-31.15 30.45-31.15 31.45-31.15 32.12-30.48 32.8-29.8 32.8-28.8 32.8-27.8 32.12-27.13 31.45-26.45 30.45-26.45 29.45-26.45 28.77-27.13ZM59.4-14.6L59.4-14.6 59.4-1.5Q59.4-0.9 60.09-0.9L60.09-0.9 62.45-0.9 62.45 0 53.45 0 53.45-0.9 55.09-0.9Q55.8-0.9 55.8-1.5L55.8-1.5 55.8-15.25Q55.8-17.8 54.67-19.03 53.55-20.25 51.7-20.25L51.7-20.25Q49.09-20.25 47.4-17.18 45.7-14.1 45.7-8.35L45.7-8.35 45.7-1.6Q45.7-0.9 46.4-0.9L46.4-0.9 48.05-0.9 48.05 0 39.05 0 39.05-0.9 41.4-0.9Q42.09-0.9 42.09-1.5L42.09-1.5 42.09-20Q42.09-20.7 41.4-20.7L41.4-20.7 39.05-20.7 39.05-21.6 41.5-21.6Q44.5-21.6 45.7-21.9L45.7-21.9 45.7-15.1Q47.4-22.2 53.2-22.2L53.2-22.2Q55.8-22.2 57.59-20.33 59.4-18.45 59.4-14.6ZM81.04 0.3L81.04 0.3 81.04-4Q78.24 0.6 74.42 0.6 70.59 0.6 68.39-2.45 66.19-5.5 66.19-10.75 66.19-16 68.99-19.1 71.79-22.2 76.04-22.2L76.04-22.2Q78.79-22.2 81.04-20.85L81.04-20.85 81.04-30.8Q81.04-31.5 80.34-31.5L80.34-31.5 77.99-31.5 77.99-32.4 80.44-32.4Q83.44-32.4 84.64-32.7L84.64-32.7 84.64-1.6Q84.64-0.9 85.34-0.9L85.34-0.9 87.69-0.9 87.69 0 85.24 0Q82.24 0 81.04 0.3ZM76.17-20.7Q73.59-20.7 71.79-18.13 69.99-15.55 69.99-10.95 69.99-6.35 71.47-3.83 72.94-1.3 75.19-1.3L75.19-1.3Q78.44-1.3 81.04-5.85L81.04-5.85 81.04-19.3Q78.74-20.7 76.17-20.7ZM116.19-20.7L116.19-21.6 122.54-21.6 122.54-20.7 120.69-20.7Q120.24-20.7 119.99-20L119.99-20 111.34 3.15Q111.19 3.6 110.84 4.5L110.84 4.5 110.29 5.85Q110.14 6.3 109.84 7.08 109.54 7.85 109.34 8.28 109.14 8.7 108.84 9.3L108.84 9.3Q108.49 10.05 107.84 10.73 107.19 11.4 106.49 11.4 105.79 11.4 105.01 10.53 104.24 9.65 104.09 8.65L104.09 8.65Q108.64 6.7 110.29 2.15L110.29 2.15 111.14-0.15 103.74-20Q103.49-20.7 103.04-20.7L103.04-20.7 101.19-20.7 101.19-21.6 109.69-21.6 109.69-20.7 107.19-20.7 112.94-4.9 118.74-20.7 116.19-20.7ZM126.84-2.45Q124.04-5.5 124.04-10.8 124.04-16.1 126.84-19.15 129.64-22.2 134.14-22.2 138.64-22.2 141.46-19.15 144.29-16.1 144.29-10.8 144.29-5.5 141.46-2.45 138.64 0.6 134.14 0.6 129.64 0.6 126.84-2.45ZM129.64-18.32Q127.84-15.55 127.84-10.8 127.84-6.05 129.64-3.28 131.44-0.5 134.14-0.5 136.84-0.5 138.66-3.28 140.49-6.05 140.49-10.8 140.49-15.55 138.66-18.32 136.84-21.1 134.14-21.1 131.44-21.1 129.64-18.32ZM167.63-21.9L167.63-21.9 167.63-1.6Q167.63-0.9 168.33-0.9L168.33-0.9 170.68-0.9 170.68 0 168.23 0Q165.23 0 164.03 0.3L164.03 0.3 164.03-6.45Q162.33 0.6 156.53 0.6L156.53 0.6Q153.93 0.6 152.13-1.28 150.33-3.15 150.33-7L150.33-7 150.33-20Q150.33-20.7 149.63-20.7L149.63-20.7 147.28-20.7 147.28-21.6 149.73-21.6Q152.73-21.6 153.93-21.9L153.93-21.9 153.93-6.35Q153.93-3.8 155.06-2.58 156.18-1.35 158.03-1.35L158.03-1.35Q160.68-1.35 162.36-4.58 164.03-7.8 164.03-13.85L164.03-13.85 164.03-20Q164.03-20.7 163.33-20.7L163.33-20.7 160.98-20.7 160.98-21.6 163.43-21.6Q166.43-21.6 167.63-21.9ZM186.93-22.2Q188.88-22.2 190.11-20.55 191.33-18.9 191.33-16.4 191.33-13.9 189.28-13.9L189.28-13.9Q188.08-13.9 187.33-14.65L187.33-14.65Q187.98-16.1 187.98-17.6L187.98-17.6Q187.98-20.25 185.78-20.25L185.78-20.25Q183.93-20.25 182.51-17.18 181.08-14.1 181.08-8.25L181.08-8.25 181.08-1.6Q181.08-0.9 181.78-0.9L181.78-0.9 185.13-0.9 185.13 0 174.43 0 174.43-0.9 176.78-0.9Q177.48-0.9 177.48-1.6L177.48-1.6 177.48-20Q177.48-20.7 176.78-20.7L176.78-20.7 174.43-20.7 174.43-21.6 176.88-21.6Q179.88-21.6 181.08-21.9L181.08-21.9 181.08-15.5Q181.88-18.95 183.43-20.58 184.98-22.2 186.93-22.2ZM212.58-13.55L212.58-13.55 217.78-11.6Q219.63-10.9 220.6-9.47 221.58-8.05 221.58-6.3L221.58-6.3Q221.58-3.6 219.43-1.5 217.28 0.6 213.65 0.6 210.03 0.6 206.83-0.75L206.83-0.75Q207.13-1.95 207.13-4.95L207.13-4.95 207.13-6.95 208.03-6.95 208.38-4.35Q208.83-0.6 213.63-0.6L213.63-0.6Q215.78-0.6 217.2-1.93 218.63-3.25 218.63-4.95L218.63-4.95Q218.63-7.3 215.78-8.35L215.78-8.35 210.58-10.3Q208.83-10.95 207.93-12.35 207.03-13.75 207.03-15.5L207.03-15.5Q207.03-18.15 208.93-20.18 210.83-22.2 213.7-22.2 216.58-22.2 220.18-20.85L220.18-20.85Q219.88-19.65 219.88-16.65L219.88-16.65 219.88-14.65 218.98-14.65 218.63-17.25Q218.23-20.85 214.08-20.85L214.08-20.85Q212.23-20.85 211.03-19.7 209.83-18.55 209.83-17L209.83-17Q209.83-14.6 212.58-13.55ZM235.92-22.2L235.92-22.2Q239.37-22.2 241.37-19.9 243.37-17.6 243.37-13.15L243.37-13.15Q243.37-12.25 243.27-11.15L243.27-11.15 229.62-11.15 229.62-10.8Q229.62-6.05 231.35-3.33 233.07-0.6 235.8-0.6 238.52-0.6 240.27-2 242.02-3.4 242.67-6L242.67-6 243.62-5.8Q243.02-2.75 240.87-1.07 238.72 0.6 235.92 0.6L235.92 0.6Q231.57 0.6 228.7-2.45 225.82-5.5 225.82-10.78 225.82-16.05 228.72-19.13 231.62-22.2 235.92-22.2ZM239.92-14.85L239.92-14.85Q239.92-21 235.32-21L235.32-21Q233.02-21 231.4-18.5 229.77-16 229.67-12.15L229.67-12.15 239.72-12.15Q239.92-13.85 239.92-14.85ZM258.07-21L258.07-21Q255.22-21 253.45-18.28 251.67-15.55 251.67-10.8 251.67-6.05 253.4-3.33 255.12-0.6 257.85-0.6 260.57-0.6 262.32-2 264.07-3.4 264.72-6L264.72-6 265.67-5.8Q265.07-2.75 262.92-1.07 260.77 0.6 257.97 0.6L257.97 0.6Q253.62 0.6 250.75-2.45 247.87-5.5 247.87-10.8 247.87-16.1 250.77-19.15 253.67-22.2 258.07-22.2L258.07-22.2Q261.47-22.2 263.17-20.68 264.87-19.15 264.87-16.6L264.87-16.6Q264.87-13.3 263.02-13.3L263.02-13.3Q261.52-13.3 260.62-14.1L260.62-14.1Q261.32-15.6 261.32-17.23 261.32-18.85 260.5-19.93 259.67-21 258.07-21ZM271.72-2.45Q268.92-5.5 268.92-10.8 268.92-16.1 271.72-19.15 274.52-22.2 279.02-22.2 283.52-22.2 286.34-19.15 289.17-16.1 289.17-10.8 289.17-5.5 286.34-2.45 283.52 0.6 279.02 0.6 274.52 0.6 271.72-2.45ZM274.52-18.32Q272.72-15.55 272.72-10.8 272.72-6.05 274.52-3.28 276.32-0.5 279.02-0.5 281.72-0.5 283.54-3.28 285.37-6.05 285.37-10.8 285.37-15.55 283.54-18.32 281.72-21.1 279.02-21.1 276.32-21.1 274.52-18.32ZM313.77-14.6L313.77-14.6 313.77-1.5Q313.77-0.9 314.47-0.9L314.47-0.9 316.82-0.9 316.82 0 307.82 0 307.82-0.9 309.47-0.9Q310.17-0.9 310.17-1.5L310.17-1.5 310.17-15.25Q310.17-17.8 309.04-19.03 307.92-20.25 306.07-20.25L306.07-20.25Q303.47-20.25 301.77-17.18 300.07-14.1 300.07-8.35L300.07-8.35 300.07-1.6Q300.07-0.9 300.77-0.9L300.77-0.9 302.42-0.9 302.42 0 293.42 0 293.42-0.9 295.77-0.9Q296.47-0.9 296.47-1.5L296.47-1.5 296.47-20Q296.47-20.7 295.77-20.7L295.77-20.7 293.42-20.7 293.42-21.6 295.87-21.6Q298.87-21.6 300.07-21.9L300.07-21.9 300.07-15.1Q301.77-22.2 307.57-22.2L307.57-22.2Q310.17-22.2 311.97-20.33 313.77-18.45 313.77-14.6ZM335.41 0.3L335.41 0.3 335.41-4Q332.61 0.6 328.79 0.6 324.96 0.6 322.76-2.45 320.56-5.5 320.56-10.75 320.56-16 323.36-19.1 326.16-22.2 330.41-22.2L330.41-22.2Q333.16-22.2 335.41-20.85L335.41-20.85 335.41-30.8Q335.41-31.5 334.71-31.5L334.71-31.5 332.36-31.5 332.36-32.4 334.81-32.4Q337.81-32.4 339.01-32.7L339.01-32.7 339.01-1.6Q339.01-0.9 339.71-0.9L339.71-0.9 342.06-0.9 342.06 0 339.61 0Q336.61 0 335.41 0.3ZM330.54-20.7Q327.96-20.7 326.16-18.13 324.36-15.55 324.36-10.95 324.36-6.35 325.84-3.83 327.31-1.3 329.56-1.3L329.56-1.3Q332.81-1.3 335.41-5.85L335.41-5.85 335.41-19.3Q333.11-20.7 330.54-20.7ZM379.56-1.6L379.56-1.6 379.56-15.05 364.96-15.05 364.96-1.6Q364.96-0.9 365.66-0.9L365.66-0.9 368.01-0.9 368.01 0 357.81 0 357.81-0.9 360.16-0.9Q360.86-0.9 360.86-1.6L360.86-1.6 360.86-30Q360.86-30.6 360.16-30.6L360.16-30.6 357.81-30.6 357.81-31.5 368.01-31.5 368.01-30.6 365.66-30.6Q364.96-30.6 364.96-29.9L364.96-29.9 364.96-16.45 379.56-16.45 379.56-29.9Q379.56-30.6 378.86-30.6L378.86-30.6 376.51-30.6 376.51-31.5 386.71-31.5 386.71-30.6 384.36-30.6Q383.66-30.6 383.66-30L383.66-30 383.66-1.6Q383.66-0.9 384.36-0.9L384.36-0.9 386.71-0.9 386.71 0 376.51 0 376.51-0.9 378.86-0.9Q379.56-0.9 379.56-1.6ZM393.26-2.45Q390.46-5.5 390.46-10.8 390.46-16.1 393.26-19.15 396.06-22.2 400.56-22.2 405.06-22.2 407.88-19.15 410.71-16.1 410.71-10.8 410.71-5.5 407.88-2.45 405.06 0.6 400.56 0.6 396.06 0.6 393.26-2.45ZM396.06-18.32Q394.26-15.55 394.26-10.8 394.26-6.05 396.06-3.28 397.86-0.5 400.56-0.5 403.26-0.5 405.08-3.28 406.91-6.05 406.91-10.8 406.91-15.55 405.08-18.32 403.26-21.1 400.56-21.1 397.86-21.1 396.06-18.32ZM448-14.6L448-14.6 448-1.5Q448-0.9 448.7-0.9L448.7-0.9 451.05-0.9 451.05 0 442.05 0 442.05-0.9 443.7-0.9Q444.4-0.9 444.4-1.5L444.4-1.5 444.4-15.25Q444.4-17.8 443.35-19.03 442.3-20.25 440.5-20.25L440.5-20.25Q438-20.25 436.4-17.03 434.8-13.8 434.8-7.75L434.8-7.75 434.8-1.6Q434.8-0.9 435.5-0.9L435.5-0.9 437.85-0.9 437.85 0 428.85 0 428.85-0.9 430.5-0.9Q431.2-0.9 431.2-1.5L431.2-1.5 431.2-15.25Q431.2-17.8 430.15-19.03 429.1-20.25 427.3-20.25L427.3-20.25Q424.8-20.25 423.2-17.03 421.6-13.8 421.6-7.75L421.6-7.75 421.6-1.6Q421.6-0.9 422.3-0.9L422.3-0.9 423.95-0.9 423.95 0 414.95 0 414.95-0.9 417.3-0.9Q418-0.9 418-1.5L418-1.5 418-20Q418-20.7 417.3-20.7L417.3-20.7 414.95-20.7 414.95-21.6 417.4-21.6Q420.4-21.6 421.6-21.9L421.6-21.9 421.6-15.2Q423.25-22.2 428.7-22.2L428.7-22.2Q431.1-22.2 432.88-20.45 434.65-18.7 434.8-15.15L434.8-15.15Q436.45-22.2 441.9-22.2L441.9-22.2Q444.4-22.2 446.2-20.33 448-18.45 448-14.6ZM464.9-22.2L464.9-22.2Q468.35-22.2 470.35-19.9 472.35-17.6 472.35-13.15L472.35-13.15Q472.35-12.25 472.25-11.15L472.25-11.15 458.6-11.15 458.6-10.8Q458.6-6.05 460.33-3.33 462.05-0.6 464.78-0.6 467.5-0.6 469.25-2 471-3.4 471.65-6L471.65-6 472.6-5.8Q472-2.75 469.85-1.07 467.7 0.6 464.9 0.6L464.9 0.6Q460.55 0.6 457.68-2.45 454.8-5.5 454.8-10.78 454.8-16.05 457.7-19.13 460.6-22.2 464.9-22.2ZM468.9-14.85L468.9-14.85Q468.9-21 464.3-21L464.3-21Q462-21 460.38-18.5 458.75-16 458.65-12.15L458.65-12.15 468.7-12.15Q468.9-13.85 468.9-14.85ZM477.67-0.23Q476.85-1.05 476.85-2.2 476.85-3.35 477.67-4.17 478.5-5 479.65-5 480.8-5 481.62-4.17 482.45-3.35 482.45-2.2 482.45-1.05 481.62-0.23 480.8 0.6 479.65 0.6 478.5 0.6 477.67-0.23ZM487.27-0.23Q486.45-1.05 486.45-2.2 486.45-3.35 487.27-4.17 488.1-5 489.25-5 490.4-5 491.22-4.17 492.05-3.35 492.05-2.2 492.05-1.05 491.22-0.23 490.4 0.6 489.25 0.6 488.1 0.6 487.27-0.23ZM496.87-0.23Q496.04-1.05 496.04-2.2 496.04-3.35 496.87-4.17 497.69-5 498.84-5 499.99-5 500.82-4.17 501.64-3.35 501.64-2.2 501.64-1.05 500.82-0.23 499.99 0.6 498.84 0.6 497.69 0.6 496.87-0.23Z" opacity="1" transform="matrix(1,0,0,1,0,0)" fill="#ffffff" class="undefined-text-1" data-fill-palette-color="secondary" id="text-1"></path></svg></g></svg></g></svg></g></svg></g><g transform="matrix(1,0,0,1,53.30361871178745,0)"><svg viewBox="0 0 85.39276257642507 85.39276257642507" height="85.39276257642507" width="85.39276257642507"><g><svg></svg></g><g id="icon-0"><svg viewBox="0 0 85.39276257642507 85.39276257642507" height="85.39276257642507" width="85.39276257642507"><g><path d="M25.618 85.393c-14.148 0-25.618-11.469-25.618-25.618v-34.157c0-14.148 11.469-25.618 25.618-25.618h34.157c14.148 0 25.618 11.469 25.618 25.618v34.157c0 14.148-11.469 25.618-25.618 25.618z" fill="#ffffff" data-fill-palette-color="accent"></path></g><g transform="matrix(1,0,0,1,24.304701288212538,24.303796047948822)"><svg viewBox="0 0 36.783359999999995 36.78517048052743" height="36.78517048052743" width="36.783359999999995"><g><svg xmlns="http://www.w3.org/2000/svg" xmlns:xlink="http://www.w3.org/1999/xlink" version="1.1" x="0" y="0" viewBox="0.35833266377449036 0.3587188720703125 89.28327178955078 89.28766632080078" enable-background="new 0 0 90 90" xml:space="preserve" height="36.78517048052743" width="36.783359999999995" class="icon-x-0" data-fill-palette-color="quaternary" id="x-0"><polygon points="57.928,58.169 57.875,76.027 45.397,63.548 45.397,45.639 " fill="#051726" data-fill-palette-color="quaternary"></polygon><polygon points="76.027,57.875 58.475,57.927 45.826,45.279 63.432,45.279 " fill="#051726" data-fill-palette-color="quaternary"></polygon><polygon points="76.027,32.125 63.432,44.721 45.707,44.721 58.355,32.073 " fill="#051726" data-fill-palette-color="quaternary"></polygon><polygon points="44.838,45.59 44.838,63.314 32.125,76.027 32.074,58.355 " fill="#051726" data-fill-palette-color="quaternary"></polygon><polygon points="57.928,31.712 45.397,44.243 45.397,26.452 57.875,13.974 " fill="#051726" data-fill-palette-color="quaternary"></polygon><polygon points="44.838,26.687 44.838,44.291 32.074,31.526 32.125,13.974 " fill="#051726" data-fill-palette-color="quaternary"></polygon><polygon points="44.479,44.721 26.569,44.721 13.974,32.125 31.832,32.073 " fill="#051726" data-fill-palette-color="quaternary"></polygon><polygon points="44.36,45.279 31.712,57.927 13.974,57.875 26.569,45.279 " fill="#051726" data-fill-palette-color="quaternary"></polygon><rect x="58.48" y="58.48" width="18.049" height="18.049" fill="#051726" data-fill-palette-color="quaternary"></rect><polygon points="76.527,13.474 76.527,31.516 58.914,31.516 58.912,31.518 58.484,31.516 58.484,13.474 " fill="#051726" data-fill-palette-color="quaternary"></polygon><polygon points="31.518,30.971 31.516,31.516 13.474,31.516 13.474,13.474 31.516,13.474 31.516,30.968 " fill="#051726" data-fill-palette-color="quaternary"></polygon><rect x="13.471" y="58.48" width="18.05" height="18.049" fill="#051726" data-fill-palette-color="quaternary"></rect><rect x="67.864" y="35.981" transform="matrix(0.7071 -0.7071 0.7071 0.7071 -9.3022 67.5465)" width="18.042" height="18.042" fill="#051726" data-fill-palette-color="quaternary"></rect><rect x="35.979" y="4.094" transform="matrix(0.7071 -0.7071 0.7071 0.7071 3.9068 35.6621)" width="18.042" height="18.042" fill="#051726" data-fill-palette-color="quaternary"></rect><rect x="4.095" y="35.98" transform="matrix(0.7071 -0.7071 0.7071 0.7071 -27.9787 22.4536)" width="18.041" height="18.041" fill="#051726" data-fill-palette-color="quaternary"></rect><rect x="35.98" y="67.865" transform="matrix(0.7071 -0.7071 0.7071 0.7071 -41.1877 54.3437)" width="18.04" height="18.041" fill="#051726" data-fill-palette-color="quaternary"></rect></svg></g></svg></g></svg></g></svg></g><g></g></svg></g></svg></g></svg></g></svg><rect width="320" height="360" fill="none" stroke="none" visibility="hidden"></rect></g></svg></g></svg>